<?xml version="1.0" encoding="UTF-8" standalone="no"?>
<!DOCTYPE svg PUBLIC "-//W3C//DTD SVG 1.0//EN" "http://www.w3.org/TR/2001/PR-SVG-20010719/DTD/svg10.dtd">
<svg width="61cm" height="28cm" viewBox="21 102 1211 547" xmlns="http://www.w3.org/2000/svg" xmlns:xlink="http://www.w3.org/1999/xlink">
  <g>
    <rect style="fill: #ffffff" x="467" y="103" width="233.3" height="28"/>
    <rect style="fill: none; fill-opacity:0; stroke-width: 2; stroke: #000000" x="467" y="103" width="233.3" height="28"/>
    <text font-size="16" style="fill: #000000;text-anchor:middle;font-family:sans-serif;font-style:normal;font-weight:700" x="583.65" y="122">Training</text>
    <rect style="fill: #ffffff" x="467" y="131" width="233.3" height="68"/>
    <rect style="fill: none; fill-opacity:0; stroke-width: 2; stroke: #000000" x="467" y="131" width="233.3" height="68"/>
    <text font-size="12.8" style="fill: #000000;text-anchor:start;font-family:monospace;font-style:normal;font-weight:normal" x="470" y="145">-wording: String</text>
    <text font-size="12.8" style="fill: #000000;text-anchor:start;font-family:monospace;font-style:normal;font-weight:normal" x="470" y="161">-youtubeUrl: String</text>
    <text font-size="12.8" style="fill: #000000;text-anchor:start;font-family:monospace;font-style:normal;font-weight:normal" x="470" y="177">-accessCode: String</text>
    <text font-size="12.8" style="fill: #000000;text-anchor:start;font-family:monospace;font-style:normal;font-weight:normal" x="470" y="193">-type: TrainingType</text>
    <rect style="fill: #ffffff" x="467" y="199" width="233.3" height="68"/>
    <rect style="fill: none; fill-opacity:0; stroke-width: 2; stroke: #000000" x="467" y="199" width="233.3" height="68"/>
    <text font-size="12.8" style="fill: #000000;text-anchor:start;font-family:monospace;font-style:normal;font-weight:normal" x="470" y="213">+addAttendee(a:User): void</text>
    <text font-size="12.8" style="fill: #000000;text-anchor:start;font-family:monospace;font-style:normal;font-weight:normal" x="470" y="229">+setDocsVisible(v:bool): void</text>
    <text font-size="12.8" style="fill: #000000;text-anchor:start;font-family:monospace;font-style:normal;font-weight:normal" x="470" y="245">+addSubgroup(sg:Group): void</text>
    <text font-size="12.8" style="fill: #000000;text-anchor:start;font-family:monospace;font-style:normal;font-weight:normal" x="470" y="261">+addDocument(d:Upload): void</text>
  </g>
  <g>
    <rect style="fill: #ffffff" x="23" y="371" width="256.4" height="28"/>
    <rect style="fill: none; fill-opacity:0; stroke-width: 2; stroke: #000000" x="23" y="371" width="256.4" height="28"/>
    <text font-size="16" style="fill: #000000;text-anchor:middle;font-family:sans-serif;font-style:normal;font-weight:700" x="151.2" y="390">User</text>
    <rect style="fill: #ffffff" x="23" y="399" width="256.4" height="84"/>
    <rect style="fill: none; fill-opacity:0; stroke-width: 2; stroke: #000000" x="23" y="399" width="256.4" height="84"/>
    <text font-size="12.8" style="fill: #000000;text-anchor:start;font-family:monospace;font-style:normal;font-weight:normal" x="26" y="413">-firstName: String</text>
    <text font-size="12.8" style="fill: #000000;text-anchor:start;font-family:monospace;font-style:normal;font-weight:normal" x="26" y="429">-lastName: String</text>
    <text font-size="12.8" style="fill: #000000;text-anchor:start;font-family:monospace;font-style:normal;font-weight:normal" x="26" y="445">-email: String</text>
    <text font-size="12.8" style="fill: #000000;text-anchor:start;font-family:monospace;font-style:normal;font-weight:normal" x="26" y="461">-password: String</text>
    <text font-size="12.8" style="fill: #000000;text-anchor:start;font-family:monospace;font-style:normal;font-weight:normal" x="26" y="477">-birthdate: Datetime</text>
    <rect style="fill: #ffffff" x="23" y="483" width="256.4" height="52"/>
    <rect style="fill: none; fill-opacity:0; stroke-width: 2; stroke: #000000" x="23" y="483" width="256.4" height="52"/>
    <text font-size="12.8" style="fill: #000000;text-anchor:start;font-family:monospace;font-style:normal;font-weight:normal" x="26" y="497">+changePassword(pw:String): void</text>
    <text font-size="12.8" style="fill: #000000;text-anchor:start;font-family:monospace;font-style:normal;font-weight:normal" x="26" y="513">+changeEmail(email:String): void</text>
    <text font-size="12.8" style="fill: #000000;text-anchor:start;font-family:monospace;font-style:normal;font-weight:normal" x="26" y="529">+addTopic(t:Topic): void</text>
  </g>
  <g>
    <rect style="fill: #ffffff" x="506" y="463" width="194.8" height="28"/>
    <rect style="fill: none; fill-opacity:0; stroke-width: 2; stroke: #000000" x="506" y="463" width="194.8" height="28"/>
    <text font-size="16" style="fill: #000000;text-anchor:middle;font-family:sans-serif;font-style:normal;font-weight:700" x="603.4" y="482">Group</text>
    <rect style="fill: #ffffff" x="506" y="491" width="194.8" height="8"/>
    <rect style="fill: none; fill-opacity:0; stroke-width: 2; stroke: #000000" x="506" y="491" width="194.8" height="8"/>
    <rect style="fill: #ffffff" x="506" y="499" width="194.8" height="20"/>
    <rect style="fill: none; fill-opacity:0; stroke-width: 2; stroke: #000000" x="506" y="499" width="194.8" height="20"/>
    <text font-size="12.8" style="fill: #000000;text-anchor:start;font-family:monospace;font-style:normal;font-weight:normal" x="509" y="513">+addMember(m:User): void</text>
  </g>
  <g>
    <rect style="fill: #ffffff" x="28" y="139" width="110.1" height="28"/>
    <rect style="fill: none; fill-opacity:0; stroke-width: 2; stroke: #000000" x="28" y="139" width="110.1" height="28"/>
    <text font-size="16" style="fill: #000000;text-anchor:middle;font-family:sans-serif;font-style:normal;font-weight:700" x="83.05" y="158">Topic</text>
    <rect style="fill: #ffffff" x="28" y="167" width="110.1" height="20"/>
    <rect style="fill: none; fill-opacity:0; stroke-width: 2; stroke: #000000" x="28" y="167" width="110.1" height="20"/>
    <text font-size="12.8" style="fill: #000000;text-anchor:start;font-family:monospace;font-style:normal;font-weight:normal" x="31" y="181">-name: String</text>
    <rect style="fill: #ffffff" x="28" y="187" width="110.1" height="8"/>
    <rect style="fill: none; fill-opacity:0; stroke-width: 2; stroke: #000000" x="28" y="187" width="110.1" height="8"/>
  </g>
  <g>
    <rect style="fill: #ffffff" x="887" y="113" width="125.5" height="28"/>
    <rect style="fill: none; fill-opacity:0; stroke-width: 2; stroke: #000000" x="887" y="113" width="125.5" height="28"/>
    <text font-size="16" style="fill: #000000;text-anchor:middle;font-family:sans-serif;font-style:normal;font-weight:700" x="949.75" y="132">Upload</text>
    <rect style="fill: #ffffff" x="887" y="141" width="125.5" height="52"/>
    <rect style="fill: none; fill-opacity:0; stroke-width: 2; stroke: #000000" x="887" y="141" width="125.5" height="52"/>
    <text font-size="12.8" style="fill: #000000;text-anchor:start;font-family:monospace;font-style:normal;font-weight:normal" x="890" y="155">-path: String</text>
    <text font-size="12.8" style="fill: #000000;text-anchor:start;font-family:monospace;font-style:normal;font-weight:normal" x="890" y="171">-date: Datetime</text>
    <text font-size="12.8" style="fill: #000000;text-anchor:start;font-family:monospace;font-style:normal;font-weight:normal" x="890" y="187">-visible: bool</text>
    <rect style="fill: #ffffff" x="887" y="193" width="125.5" height="8"/>
    <rect style="fill: none; fill-opacity:0; stroke-width: 2; stroke: #000000" x="887" y="193" width="125.5" height="8"/>
  </g>
  <g>
    <polyline style="fill: none; fill-opacity:0; stroke-width: 2; stroke: #000000" points="151.2,369.995 151.2,280 83.05,280 83.05,196.002 "/>
    <text font-size="12.7998" style="fill: #000000;text-anchor:middle;font-family:monospace;font-style:normal;font-weight:normal" x="117.125" y="277">Favor</text>
    <polygon style="fill: #000000" points="93.875,277 93.875,269 85.875,273 "/>
    <text font-size="12.7998" style="fill: #000000;text-anchor:start;font-family:monospace;font-style:normal;font-weight:normal" x="155.2" y="365.995">0..*</text>
    <text font-size="12.7998" style="fill: #000000;text-anchor:start;font-family:monospace;font-style:normal;font-weight:normal" x="87.05" y="208.002">0..*</text>
  </g>
  <g>
    <polyline style="fill: none; fill-opacity:0; stroke-width: 2; stroke: #000000" points="280.405,453 457,453 457,225 467,225 "/>
    <text font-size="12.7998" style="fill: #000000;text-anchor:start;font-family:monospace;font-style:normal;font-weight:normal" x="459" y="336">Attend</text>
    <polygon style="fill: #000000" points="507.2,336 507.2,328 515.2,332 "/>
    <text font-size="12.7998" style="fill: #000000;text-anchor:start;font-family:monospace;font-style:normal;font-weight:normal" x="284.405" y="450">0..*</text>
    <text font-size="12.7998" style="fill: #000000;text-anchor:end;font-family:monospace;font-style:normal;font-weight:normal" x="463" y="222">0..*</text>
  </g>
  <g>
    <polyline style="fill: none; fill-opacity:0; stroke-width: 2; stroke: #000000" points="213.681,625.5 334.251,625.5 334.251,185 465.993,185 "/>
    <polygon style="fill: #ffffff" points="188.509,625.5 202.509,620.7 216.509,625.5 202.509,630.3 "/>
    <polygon style="fill: none; fill-opacity:0; stroke-width: 2; stroke: #000000" points="188.509,625.5 202.509,620.7 216.509,625.5 202.509,630.3 "/>
    <text font-size="12.7998" style="fill: #000000;text-anchor:start;font-family:monospace;font-style:normal;font-weight:normal" x="336.251" y="402.25">Organize</text>
    <polygon style="fill: #000000" points="399.851,402.25 399.851,394.25 407.851,398.25 "/>
    <text font-size="12.7998" style="fill: #000000;text-anchor:start;font-family:monospace;font-style:normal;font-weight:normal" x="220.509" y="622.5">1</text>
    <text font-size="12.7998" style="fill: #000000;text-anchor:end;font-family:monospace;font-style:normal;font-weight:normal" x="461.993" y="182">0..*</text>
  </g>
  <g>
    <polyline style="fill: none; fill-opacity:0; stroke-width: 2; stroke: #000000" points="725.472,157 715.3,157 884.992,157 885.992,157 "/>
    <polygon style="fill: #ffffff" points="700.3,157 714.3,152.2 728.3,157 714.3,161.8 "/>
    <polygon style="fill: none; fill-opacity:0; stroke-width: 2; stroke: #000000" points="700.3,157 714.3,152.2 728.3,157 714.3,161.8 "/>
    <text font-size="12.7998" style="fill: #000000;text-anchor:middle;font-family:monospace;font-style:normal;font-weight:normal" x="800.146" y="154">Reference</text>
    <polygon style="fill: #000000" points="836.796,154 836.796,146 844.796,150 "/>
    <text font-size="12.7998" style="fill: #000000;text-anchor:start;font-family:monospace;font-style:normal;font-weight:normal" x="732.3" y="154">1</text>
    <text font-size="12.7998" style="fill: #000000;text-anchor:end;font-family:monospace;font-style:normal;font-weight:normal" x="881.992" y="154">0..*</text>
  </g>
  <g>
    <polyline style="fill: none; fill-opacity:0; stroke-width: 2; stroke: #000000" points="701.806,491 735.3,491 735.3,241 725.472,241 "/>
    <polygon style="fill: #ffffff" points="700.3,241 714.3,236.2 728.3,241 714.3,245.8 "/>
    <polygon style="fill: none; fill-opacity:0; stroke-width: 2; stroke: #000000" points="700.3,241 714.3,236.2 728.3,241 714.3,245.8 "/>
    <text font-size="12.7998" style="fill: #000000;text-anchor:start;font-family:monospace;font-style:normal;font-weight:normal" x="737.3" y="363">Compose</text>
    <polygon style="fill: #000000" points="733.3,363 733.3,355 725.3,359 "/>
    <text font-size="12.7998" style="fill: #000000;text-anchor:start;font-family:monospace;font-style:normal;font-weight:normal" x="705.806" y="488">0..*</text>
    <text font-size="12.7998" style="fill: #000000;text-anchor:start;font-family:monospace;font-style:normal;font-weight:normal" x="732.3" y="238">1</text>
  </g>
  <g>
    <polyline style="fill: none; fill-opacity:0; stroke-width: 2; stroke: #000000" points="506,509 505,509 280.4,509 279.4,509 "/>
    <text font-size="12.7998" style="fill: #000000;text-anchor:middle;font-family:monospace;font-style:normal;font-weight:normal" x="392.7" y="506">Belong</text>
    <polygon style="fill: #000000" points="417.8,506 417.8,498 425.8,502 "/>
    <text font-size="12.7998" style="fill: #000000;text-anchor:end;font-family:monospace;font-style:normal;font-weight:normal" x="502" y="506">0..*</text>
    <text font-size="12.7998" style="fill: #000000;text-anchor:start;font-family:monospace;font-style:normal;font-weight:normal" x="283.4" y="506">0..*</text>
  </g>
  <g>
    <rect style="fill: #ffffff" x="114" y="603.5" width="73.5" height="28"/>
    <rect style="fill: none; fill-opacity:0; stroke-width: 2; stroke: #000000" x="114" y="603.5" width="73.5" height="28"/>
    <text font-size="16" style="fill: #000000;text-anchor:middle;font-family:sans-serif;font-style:normal;font-weight:700" x="150.75" y="622.5">Trainer</text>
    <rect style="fill: #ffffff" x="114" y="631.5" width="73.5" height="8"/>
    <rect style="fill: none; fill-opacity:0; stroke-width: 2; stroke: #000000" x="114" y="631.5" width="73.5" height="8"/>
    <rect style="fill: #ffffff" x="114" y="639.5" width="73.5" height="8"/>
    <rect style="fill: none; fill-opacity:0; stroke-width: 2; stroke: #000000" x="114" y="639.5" width="73.5" height="8"/>
  </g>
  <g>
    <polyline style="fill: none; fill-opacity:0; stroke-width: 2; stroke: #000000" points="151.2,554.241 151.2,577.25 150.75,577.25 150.75,602.494 "/>
    <polygon style="fill: #ffffff" points="159.2,554.241 151.2,538.241 143.2,554.241 "/>
    <polygon style="fill: none; fill-opacity:0; stroke-width: 2; stroke: #000000" points="159.2,554.241 151.2,538.241 143.2,554.241 "/>
  </g>
  <g>
    <rect style="fill: #ffffff" x="921" y="376.5" width="310.3" height="28"/>
    <rect style="fill: none; fill-opacity:0; stroke-width: 2; stroke: #000000" x="921" y="376.5" width="310.3" height="28"/>
    <text font-size="16" style="fill: #000000;text-anchor:middle;font-family:sans-serif;font-style:normal;font-weight:700" x="1076.15" y="395.5">Planning</text>
    <rect style="fill: #ffffff" x="921" y="404.5" width="310.3" height="8"/>
    <rect style="fill: none; fill-opacity:0; stroke-width: 2; stroke: #000000" x="921" y="404.5" width="310.3" height="8"/>
    <rect style="fill: #ffffff" x="921" y="412.5" width="310.3" height="36"/>
    <rect style="fill: none; fill-opacity:0; stroke-width: 2; stroke: #000000" x="921" y="412.5" width="310.3" height="36"/>
    <text font-size="12.8" style="fill: #000000;text-anchor:start;font-family:monospace;font-style:normal;font-weight:normal" x="924" y="426.5">+addTaining(d:Datetime,t:Taining): void</text>
    <text font-size="12.8" style="fill: #000000;text-anchor:start;font-family:monospace;font-style:normal;font-weight:normal" x="924" y="442.5">+available(d:Datetime): bool</text>
  </g>
  <g>
    <polyline style="fill: none; fill-opacity:0; stroke-width: 2; stroke: #000000" points="700.3,189 803.145,189 803.145,412.5 894.819,412.5 "/>
    <polygon style="fill: #ffffff" points="919.99,412.5 905.99,417.3 891.99,412.5 905.99,407.7 "/>
    <polygon style="fill: none; fill-opacity:0; stroke-width: 2; stroke: #000000" points="919.99,412.5 905.99,417.3 891.99,412.5 905.99,407.7 "/>
    <text font-size="12.7998" style="fill: #000000;text-anchor:start;font-family:monospace;font-style:normal;font-weight:normal" x="805.145" y="297.75">Schedule</text>
    <polygon style="fill: #000000" points="801.145,297.75 801.145,289.75 793.145,293.75 "/>
    <text font-size="12.7998" style="fill: #000000;text-anchor:start;font-family:monospace;font-style:normal;font-weight:normal" x="704.3" y="186">0..*</text>
    <text font-size="12.7998" style="fill: #000000;text-anchor:end;font-family:monospace;font-style:normal;font-weight:normal" x="887.99" y="409.5">1</text>
  </g>
</svg>
