<?xml version="1.0" encoding="UTF-8" standalone="no"?>
<!DOCTYPE svg PUBLIC "-//W3C//DTD SVG 1.0//EN" "http://www.w3.org/TR/2001/PR-SVG-20010719/DTD/svg10.dtd">
<svg width="64cm" height="53cm" viewBox="-173 53 1274 1049" xmlns="http://www.w3.org/2000/svg" xmlns:xlink="http://www.w3.org/1999/xlink">
  <g>
    <rect style="fill: #ffffff" x="-171.926" y="902" width="1271.57" height="123.716"/>
    <rect style="fill: none; fill-opacity:0; stroke-width: 2; stroke: #000000" x="-171.926" y="902" width="1271.57" height="123.716"/>
    <rect style="fill: #ffffff" x="-171.926" y="866" width="65.6" height="36"/>
    <rect style="fill: none; fill-opacity:0; stroke-width: 2; stroke: #000000" x="-171.926" y="866" width="65.6" height="36"/>
    <text font-size="12.7998" style="fill: #000000;text-anchor:start;font-family:monospace;font-style:normal;font-weight:normal" x="-169.926" y="881">&lt;&lt;loop&gt;&gt;</text>
    <text font-size="12.7998" style="fill: #000000;text-anchor:start;font-family:monospace;font-style:normal;font-weight:normal" x="-169.926" y="897"/>
  </g>
  <g>
    <rect style="fill: #ffffff" x="-171.926" y="558.65" width="1271.57" height="287.133"/>
    <rect style="fill: none; fill-opacity:0; stroke-width: 2; stroke: #000000" x="-171.926" y="558.65" width="1271.57" height="287.133"/>
    <rect style="fill: #ffffff" x="-171.926" y="522.65" width="65.6" height="36"/>
    <rect style="fill: none; fill-opacity:0; stroke-width: 2; stroke: #000000" x="-171.926" y="522.65" width="65.6" height="36"/>
    <text font-size="12.7998" style="fill: #000000;text-anchor:start;font-family:monospace;font-style:normal;font-weight:normal" x="-169.926" y="537.65">&lt;&lt;loop&gt;&gt;</text>
    <text font-size="12.7998" style="fill: #000000;text-anchor:start;font-family:monospace;font-style:normal;font-weight:normal" x="-169.926" y="553.65"/>
  </g>
  <g>
    <rect style="fill: #ffffff" x="-158.845" y="663.792" width="1234.49" height="124.193"/>
    <rect style="fill: none; fill-opacity:0; stroke-width: 2; stroke: #000000" x="-158.845" y="663.792" width="1234.49" height="124.193"/>
    <rect style="fill: #ffffff" x="-158.845" y="627.792" width="65.6" height="36"/>
    <rect style="fill: none; fill-opacity:0; stroke-width: 2; stroke: #000000" x="-158.845" y="627.792" width="65.6" height="36"/>
    <text font-size="12.7998" style="fill: #000000;text-anchor:start;font-family:monospace;font-style:normal;font-weight:normal" x="-156.845" y="642.792">&lt;&lt;loop&gt;&gt;</text>
    <text font-size="12.7998" style="fill: #000000;text-anchor:start;font-family:monospace;font-style:normal;font-weight:normal" x="-156.845" y="658.792"/>
  </g>
  <g>
    <rect style="fill: #ffffff" x="-171.926" y="373.189" width="1271.57" height="128.539"/>
    <rect style="fill: none; fill-opacity:0; stroke-width: 2; stroke: #000000" x="-171.926" y="373.189" width="1271.57" height="128.539"/>
    <rect style="fill: #ffffff" x="-171.926" y="337.189" width="65.6" height="36"/>
    <rect style="fill: none; fill-opacity:0; stroke-width: 2; stroke: #000000" x="-171.926" y="337.189" width="65.6" height="36"/>
    <text font-size="12.7998" style="fill: #000000;text-anchor:start;font-family:monospace;font-style:normal;font-weight:normal" x="-169.926" y="352.189">&lt;&lt;loop&gt;&gt;</text>
    <text font-size="12.7998" style="fill: #000000;text-anchor:start;font-family:monospace;font-style:normal;font-weight:normal" x="-169.926" y="368.189"/>
  </g>
  <g>
    <line style="fill: none; fill-opacity:0; stroke-width: 1; stroke-dasharray: 8; stroke: #000000" x1="164.472" y1="134.541" x2="164.472" y2="170.963"/>
    <line style="fill: none; fill-opacity:0; stroke-width: 1; stroke-dasharray: 8; stroke: #000000" x1="164.472" y1="1040.96" x2="164.472" y2="1099.53"/>
    <rect style="fill: #ffffff" x="157.472" y="170.963" width="14" height="870"/>
    <rect style="fill: none; fill-opacity:0; stroke-width: 2; stroke: #000000" x="157.472" y="170.963" width="14" height="870"/>
  </g>
  <g>
    <ellipse style="fill: #ffffff" cx="-77.1892" cy="72.5437" rx="6" ry="6"/>
    <ellipse style="fill: none; fill-opacity:0; stroke-width: 2; stroke: #000000" cx="-77.1892" cy="72.5437" rx="6" ry="6"/>
    <line style="fill: none; fill-opacity:0; stroke-width: 2; stroke: #000000" x1="-101.189" y1="84.5437" x2="-53.1892" y2="84.5437"/>
    <line style="fill: none; fill-opacity:0; stroke-width: 2; stroke: #000000" x1="-77.1892" y1="78.5437" x2="-77.1892" y2="108.544"/>
    <line style="fill: none; fill-opacity:0; stroke-width: 2; stroke: #000000" x1="-77.1892" y1="108.544" x2="-101.189" y2="134.544"/>
    <line style="fill: none; fill-opacity:0; stroke-width: 2; stroke: #000000" x1="-77.1892" y1="108.544" x2="-53.1892" y2="134.544"/>
    <text font-size="12.8" style="fill: #000000;text-anchor:middle;font-family:sans-serif;font-style:normal;font-weight:normal" x="-77.1892" y="158.444">
      <tspan x="-77.1892" y="158.444">Trainer</tspan>
    </text>
  </g>
  <g>
    <line style="fill: none; fill-opacity:0; stroke-width: 1; stroke-dasharray: 8; stroke: #000000" x1="-77.1892" y1="162.544" x2="-77.1892" y2="185.544"/>
    <line style="fill: none; fill-opacity:0; stroke-width: 1; stroke-dasharray: 8; stroke: #000000" x1="-77.1892" y1="1055.54" x2="-77.1892" y2="1099.53"/>
    <rect style="fill: #ffffff" x="-84.1892" y="185.544" width="14" height="870"/>
    <rect style="fill: none; fill-opacity:0; stroke-width: 2; stroke: #000000" x="-84.1892" y="185.544" width="14" height="870"/>
  </g>
  <g>
    <rect style="fill: #ffffff" x="353" y="100" width="70.45" height="36"/>
    <rect style="fill: none; fill-opacity:0; stroke-width: 2; stroke: #000000" x="353" y="100" width="70.45" height="36"/>
    <text font-size="12.8" style="fill: #000000;text-anchor:middle;font-family:sans-serif;font-style:normal;font-weight:normal" x="388.225" y="121.9">
      <tspan x="388.225" y="121.9">Training</tspan>
    </text>
    <line style="fill: none; fill-opacity:0; stroke-width: 1; stroke: #000000" x1="363" y1="124.9" x2="413.45" y2="124.9"/>
  </g>
  <g>
    <line style="fill: none; fill-opacity:0; stroke-width: 1; stroke-dasharray: 8; stroke: #000000" x1="388.226" y1="136" x2="388.226" y2="260.726"/>
    <line style="fill: none; fill-opacity:0; stroke-width: 1; stroke-dasharray: 8; stroke: #000000" x1="388.226" y1="1040.73" x2="388.226" y2="1099.53"/>
    <rect style="fill: #ffffff" x="381.226" y="260.726" width="14" height="780"/>
    <rect style="fill: none; fill-opacity:0; stroke-width: 2; stroke: #000000" x="381.226" y="260.726" width="14" height="780"/>
  </g>
  <g>
    <line style="fill: none; fill-opacity:0; stroke-width: 2; stroke: #000000" x1="140.473" y1="185.932" x2="-70.1892" y2="185.544"/>
    <polygon style="fill: #000000" points="140.463,190.932 156.472,185.961 140.482,180.932 "/>
    <polygon style="fill: none; fill-opacity:0; stroke-width: 2; stroke: #000000" points="140.463,190.932 156.472,185.961 140.482,180.932 "/>
    <text font-size="12.7998" style="fill: #000000;text-anchor:middle;font-family:sans-serif;font-style:normal;font-weight:normal" x="24.4559" y="205.86">Enter (date, wording, accesscode, type)</text>
  </g>
  <g>
    <rect style="fill: #ffffff" x="555.25" y="100.5" width="49.15" height="36"/>
    <rect style="fill: none; fill-opacity:0; stroke-width: 2; stroke: #000000" x="555.25" y="100.5" width="49.15" height="36"/>
    <text font-size="12.8" style="fill: #000000;text-anchor:middle;font-family:sans-serif;font-style:normal;font-weight:normal" x="579.825" y="122.4">
      <tspan x="579.825" y="122.4">User</tspan>
    </text>
    <line style="fill: none; fill-opacity:0; stroke-width: 1; stroke: #000000" x1="565.25" y1="125.4" x2="594.4" y2="125.4"/>
  </g>
  <g>
    <line style="fill: none; fill-opacity:0; stroke-width: 1; stroke-dasharray: 8; stroke: #000000" x1="579.825" y1="136.5" x2="579.825" y2="411.761"/>
    <line style="fill: none; fill-opacity:0; stroke-width: 1; stroke-dasharray: 8; stroke: #000000" x1="579.825" y1="471.761" x2="579.825" y2="514.814"/>
    <rect style="fill: #ffffff" x="572.825" y="411.761" width="14" height="60"/>
    <rect style="fill: none; fill-opacity:0; stroke-width: 2; stroke: #000000" x="572.825" y="411.761" width="14" height="60"/>
  </g>
  <g>
    <line style="fill: none; fill-opacity:0; stroke-width: 2; stroke: #000000" x1="140.473" y1="395.932" x2="-70.1892" y2="395.544"/>
    <polygon style="fill: #000000" points="140.463,400.932 156.472,395.961 140.482,390.932 "/>
    <polygon style="fill: none; fill-opacity:0; stroke-width: 2; stroke: #000000" points="140.463,400.932 156.472,395.961 140.482,390.932 "/>
    <text font-size="12.7998" style="fill: #000000;text-anchor:middle;font-family:sans-serif;font-style:normal;font-weight:normal" x="43.2786" y="410.753">Enter (username)</text>
  </g>
  <g>
    <line style="fill: none; fill-opacity:0; stroke-width: 2; stroke: #000000" x1="555.825" y1="411.727" x2="171.472" y2="410.963"/>
    <polygon style="fill: #000000" points="555.815,416.727 571.825,411.759 555.835,406.727 "/>
    <polygon style="fill: none; fill-opacity:0; stroke-width: 2; stroke: #000000" points="555.815,416.727 571.825,411.759 555.835,406.727 "/>
    <text font-size="12.7998" style="fill: #000000;text-anchor:middle;font-family:sans-serif;font-style:normal;font-weight:normal" x="319.983" y="428.323">Found (username)</text>
  </g>
  <g>
    <line style="fill: none; fill-opacity:0; stroke-width: 2; stroke-dasharray: 8; stroke: #000000" x1="188.472" y1="440.997" x2="572.825" y2="441.761"/>
    <polygon style="fill: #000000" points="188.482,435.997 172.472,440.965 188.463,445.997 "/>
    <polygon style="fill: none; fill-opacity:0; stroke-width: 2; stroke: #000000" points="188.482,435.997 172.472,440.965 188.463,445.997 "/>
    <text font-size="12.7998" style="fill: #000000;text-anchor:middle;font-family:sans-serif;font-style:normal;font-weight:normal" x="359.242" y="456.676">User</text>
  </g>
  <g>
    <rect style="fill: #ffffff" x="699.65" y="100.311" width="58.95" height="36"/>
    <rect style="fill: none; fill-opacity:0; stroke-width: 2; stroke: #000000" x="699.65" y="100.311" width="58.95" height="36"/>
    <text font-size="12.8" style="fill: #000000;text-anchor:middle;font-family:sans-serif;font-style:normal;font-weight:normal" x="729.125" y="122.211">
      <tspan x="729.125" y="122.211">Group</tspan>
    </text>
    <line style="fill: none; fill-opacity:0; stroke-width: 1; stroke: #000000" x1="709.65" y1="125.211" x2="748.6" y2="125.211"/>
  </g>
  <g>
    <line style="fill: none; fill-opacity:0; stroke-width: 1; stroke-dasharray: 8; stroke: #000000" x1="729.125" y1="136.311" x2="729.125" y2="591.149"/>
    <line style="fill: none; fill-opacity:0; stroke-width: 1; stroke-dasharray: 8; stroke: #000000" x1="729.125" y1="831.149" x2="729.125" y2="1099.87"/>
    <rect style="fill: #ffffff" x="722.125" y="591.149" width="14" height="240"/>
    <rect style="fill: none; fill-opacity:0; stroke-width: 2; stroke: #000000" x="722.125" y="591.149" width="14" height="240"/>
  </g>
  <g>
    <line style="fill: none; fill-opacity:0; stroke-width: 2; stroke: #000000" x1="705.125" y1="591.144" x2="171.472" y2="590.963"/>
    <polygon style="fill: #000000" points="705.123,596.144 721.125,591.149 705.127,586.144 "/>
    <polygon style="fill: none; fill-opacity:0; stroke-width: 2; stroke: #000000" points="705.123,596.144 721.125,591.149 705.127,586.144 "/>
    <text font-size="12.7998" style="fill: #000000;text-anchor:middle;font-family:sans-serif;font-style:normal;font-weight:normal" x="443.773" y="605.056">Create (subgroup name)</text>
  </g>
  <g>
    <line style="fill: none; fill-opacity:0; stroke-width: 2; stroke: #000000" x1="140.473" y1="575.932" x2="-70.1892" y2="575.544"/>
    <polygon style="fill: #000000" points="140.463,580.932 156.472,575.961 140.482,570.932 "/>
    <polygon style="fill: none; fill-opacity:0; stroke-width: 2; stroke: #000000" points="140.463,580.932 156.472,575.961 140.482,570.932 "/>
    <text font-size="12.7998" style="fill: #000000;text-anchor:middle;font-family:sans-serif;font-style:normal;font-weight:normal" x="42.6786" y="590.753">Enter (subgroup name)</text>
  </g>
  <g>
    <line style="fill: none; fill-opacity:0; stroke-width: 2; stroke-dasharray: 8; stroke: #000000" x1="188.472" y1="620.969" x2="722.125" y2="621.149"/>
    <polygon style="fill: #000000" points="188.474,615.969 172.472,620.964 188.471,625.969 "/>
    <polygon style="fill: none; fill-opacity:0; stroke-width: 2; stroke: #000000" points="188.474,615.969 172.472,620.964 188.471,625.969 "/>
    <text font-size="12.7998" style="fill: #000000;text-anchor:middle;font-family:sans-serif;font-style:normal;font-weight:normal" x="447.773" y="634.056">Group</text>
  </g>
  <g>
    <line style="fill: none; fill-opacity:0; stroke-width: 2; stroke: #000000" x1="140.473" y1="680.932" x2="-70.1892" y2="680.544"/>
    <polygon style="fill: #000000" points="140.463,685.932 156.472,680.961 140.482,675.932 "/>
    <polygon style="fill: none; fill-opacity:0; stroke-width: 2; stroke: #000000" points="140.463,685.932 156.472,680.961 140.482,675.932 "/>
    <text font-size="12.7998" style="fill: #000000;text-anchor:middle;font-family:sans-serif;font-style:normal;font-weight:normal" x="44.6786" y="695.753">Enter (username)</text>
  </g>
  <g>
    <line style="fill: none; fill-opacity:0; stroke-width: 2; stroke: #000000" x1="555.524" y1="696.379" x2="171.472" y2="695.963"/>
    <polygon style="fill: #000000" points="555.519,701.379 571.524,696.397 555.529,691.379 "/>
    <polygon style="fill: none; fill-opacity:0; stroke-width: 2; stroke: #000000" points="555.519,701.379 571.524,696.397 555.529,691.379 "/>
    <text font-size="12.7998" style="fill: #000000;text-anchor:middle;font-family:sans-serif;font-style:normal;font-weight:normal" x="319.983" y="711.605">Found (username)</text>
  </g>
  <g>
    <line style="fill: none; fill-opacity:0; stroke-width: 1; stroke-dasharray: 8; stroke: #000000" x1="579.524" y1="487.551" x2="579.524" y2="696.398"/>
    <line style="fill: none; fill-opacity:0; stroke-width: 1; stroke-dasharray: 8; stroke: #000000" x1="579.524" y1="756.398" x2="579.524" y2="1099.87"/>
    <rect style="fill: #ffffff" x="572.524" y="696.398" width="14" height="60"/>
    <rect style="fill: none; fill-opacity:0; stroke-width: 2; stroke: #000000" x="572.524" y="696.398" width="14" height="60"/>
  </g>
  <g>
    <line style="fill: none; fill-opacity:0; stroke-width: 2; stroke-dasharray: 8; stroke: #000000" x1="188.472" y1="725.982" x2="572.524" y2="726.398"/>
    <polygon style="fill: #000000" points="188.478,720.982 172.472,725.964 188.467,730.982 "/>
    <polygon style="fill: none; fill-opacity:0; stroke-width: 2; stroke: #000000" points="188.478,720.982 172.472,725.964 188.467,730.982 "/>
    <text font-size="12.7998" style="fill: #000000;text-anchor:middle;font-family:sans-serif;font-style:normal;font-weight:normal" x="357.061" y="741.049">User</text>
  </g>
  <g>
    <line style="fill: none; fill-opacity:0; stroke-width: 2; stroke: #000000" x1="705.125" y1="756.144" x2="171.472" y2="755.963"/>
    <polygon style="fill: #000000" points="705.123,761.144 721.125,756.149 705.127,751.144 "/>
    <polygon style="fill: none; fill-opacity:0; stroke-width: 2; stroke: #000000" points="705.123,761.144 721.125,756.149 705.127,751.144 "/>
    <text font-size="12.7998" style="fill: #000000;text-anchor:middle;font-family:sans-serif;font-style:normal;font-weight:normal" x="450.844" y="771.583">Add (member)</text>
  </g>
  <g>
    <rect style="fill: #ffffff" x="858.4" y="101" width="64.9" height="36"/>
    <rect style="fill: none; fill-opacity:0; stroke-width: 2; stroke: #000000" x="858.4" y="101" width="64.9" height="36"/>
    <text font-size="12.8" style="fill: #000000;text-anchor:middle;font-family:sans-serif;font-style:normal;font-weight:normal" x="890.85" y="122.9">
      <tspan x="890.85" y="122.9">Upload</tspan>
    </text>
    <line style="fill: none; fill-opacity:0; stroke-width: 1; stroke: #000000" x1="868.4" y1="125.9" x2="913.3" y2="125.9"/>
  </g>
  <g>
    <line style="fill: none; fill-opacity:0; stroke-width: 1; stroke-dasharray: 8; stroke: #000000" x1="890.85" y1="137" x2="890.85" y2="936"/>
    <line style="fill: none; fill-opacity:0; stroke-width: 1; stroke-dasharray: 8; stroke: #000000" x1="890.85" y1="996" x2="890.85" y2="1101.51"/>
    <rect style="fill: #ffffff" x="883.85" y="936" width="14" height="60"/>
    <rect style="fill: none; fill-opacity:0; stroke-width: 2; stroke: #000000" x="883.85" y="936" width="14" height="60"/>
  </g>
  <g>
    <line style="fill: none; fill-opacity:0; stroke-width: 2; stroke: #000000" x1="140.473" y1="920.932" x2="-70.1892" y2="920.544"/>
    <polygon style="fill: #000000" points="140.463,925.932 156.472,920.961 140.482,915.932 "/>
    <polygon style="fill: none; fill-opacity:0; stroke-width: 2; stroke: #000000" points="140.463,925.932 156.472,920.961 140.482,915.932 "/>
    <text font-size="12.7998" style="fill: #000000;text-anchor:middle;font-family:sans-serif;font-style:normal;font-weight:normal" x="41.6786" y="936.253">Upload (document)</text>
  </g>
  <g>
    <line style="fill: none; fill-opacity:0; stroke-width: 2; stroke: #000000" x1="866.85" y1="935.999" x2="171.472" y2="935.963"/>
    <polygon style="fill: #000000" points="866.85,940.999 882.85,936 866.85,930.999 "/>
    <polygon style="fill: none; fill-opacity:0; stroke-width: 2; stroke: #000000" points="866.85,940.999 882.85,936 866.85,930.999 "/>
    <text font-size="12.7998" style="fill: #000000;text-anchor:middle;font-family:sans-serif;font-style:normal;font-weight:normal" x="544.773" y="951.482">Create (document)</text>
  </g>
  <g>
    <line style="fill: none; fill-opacity:0; stroke-width: 2; stroke-dasharray: 8; stroke: #000000" x1="188.472" y1="965.964" x2="883.85" y2="966"/>
    <polygon style="fill: #000000" points="188.473,960.964 172.472,965.963 188.472,970.964 "/>
    <polygon style="fill: none; fill-opacity:0; stroke-width: 2; stroke: #000000" points="188.473,960.964 172.472,965.963 188.472,970.964 "/>
    <text font-size="12.7998" style="fill: #000000;text-anchor:middle;font-family:sans-serif;font-style:normal;font-weight:normal" x="531.773" y="981.482">Upload</text>
  </g>
  <g>
    <rect style="fill: #ffffff" x="122.997" y="98.541" width="82.95" height="36"/>
    <rect style="fill: none; fill-opacity:0; stroke-width: 2; stroke: #000000" x="122.997" y="98.541" width="82.95" height="36"/>
    <text font-size="12.7998" style="fill: #000000;text-anchor:middle;font-family:sans-serif;font-style:normal;font-weight:normal" x="164.472" y="120.441">
      <tspan x="164.472" y="120.441">Controller</tspan>
    </text>
    <line style="fill: none; fill-opacity:0; stroke-width: 1; stroke: #000000" x1="132.997" y1="123.441" x2="195.947" y2="123.441"/>
  </g>
  <g>
    <line style="fill: none; fill-opacity:0; stroke-width: 2; stroke: #000000" x1="364.226" y1="260.745" x2="171.472" y2="260.963"/>
    <polygon style="fill: #000000" points="364.232,265.745 380.226,260.727 364.22,255.745 "/>
    <polygon style="fill: none; fill-opacity:0; stroke-width: 2; stroke: #000000" points="364.232,265.745 380.226,260.727 364.22,255.745 "/>
    <text font-size="12.7998" style="fill: #000000;text-anchor:middle;font-family:sans-serif;font-style:normal;font-weight:normal" x="290.54" y="278.128">Create (wording, accesscode, type)</text>
  </g>
  <g>
    <line style="fill: none; fill-opacity:0; stroke-width: 2; stroke-dasharray: 8; stroke: #000000" x1="188.472" y1="290.944" x2="381.226" y2="290.726"/>
    <polygon style="fill: #000000" points="188.467,285.944 172.472,290.962 188.478,295.944 "/>
    <polygon style="fill: none; fill-opacity:0; stroke-width: 2; stroke: #000000" points="188.467,285.944 172.472,290.962 188.478,295.944 "/>
    <text font-size="12.7998" style="fill: #000000;text-anchor:middle;font-family:sans-serif;font-style:normal;font-weight:normal" x="276.407" y="305.67">Training</text>
  </g>
  <g>
    <line style="fill: none; fill-opacity:0; stroke-width: 2; stroke: #000000" x1="364.226" y1="470.745" x2="171.472" y2="470.963"/>
    <polygon style="fill: #000000" points="364.232,475.745 380.226,470.727 364.22,465.745 "/>
    <polygon style="fill: none; fill-opacity:0; stroke-width: 2; stroke: #000000" points="364.232,475.745 380.226,470.727 364.22,465.745 "/>
    <text font-size="12.7998" style="fill: #000000;text-anchor:middle;font-family:sans-serif;font-style:normal;font-weight:normal" x="271.65" y="486.239">Add (attendee)</text>
  </g>
  <g>
    <rect style="fill: #ffffff" x="1003.09" y="100.421" width="75.1" height="36"/>
    <rect style="fill: none; fill-opacity:0; stroke-width: 2; stroke: #000000" x="1003.09" y="100.421" width="75.1" height="36"/>
    <text font-size="12.7998" style="fill: #000000;text-anchor:middle;font-family:sans-serif;font-style:normal;font-weight:normal" x="1040.64" y="122.321">
      <tspan x="1040.64" y="122.321">Planning</tspan>
    </text>
    <line style="fill: none; fill-opacity:0; stroke-width: 1; stroke: #000000" x1="1013.09" y1="125.321" x2="1068.19" y2="125.321"/>
  </g>
  <g>
    <line style="fill: none; fill-opacity:0; stroke-width: 1; stroke-dasharray: 8; stroke: #000000" x1="1040.64" y1="136.421" x2="1040.64" y2="185.495"/>
    <line style="fill: none; fill-opacity:0; stroke-width: 1; stroke-dasharray: 8; stroke: #000000" x1="1040.64" y1="335.495" x2="1040.64" y2="1099.33"/>
    <rect style="fill: #ffffff" x="1033.64" y="185.495" width="14" height="150"/>
    <rect style="fill: none; fill-opacity:0; stroke-width: 2; stroke: #000000" x="1033.64" y="185.495" width="14" height="150"/>
  </g>
  <g>
    <line style="fill: none; fill-opacity:0; stroke-width: 2; stroke: #000000" x1="1016.64" y1="200.504" x2="171.472" y2="200.963"/>
    <polygon style="fill: #000000" points="1016.64,205.504 1032.64,200.496 1016.64,195.504 "/>
    <polygon style="fill: none; fill-opacity:0; stroke-width: 2; stroke: #000000" points="1016.64,205.504 1032.64,200.496 1016.64,195.504 "/>
    <text font-size="12.7998" style="fill: #000000;text-anchor:middle;font-family:sans-serif;font-style:normal;font-weight:normal" x="602.425" y="217.053">Available? (date)</text>
  </g>
  <g>
    <line style="fill: none; fill-opacity:0; stroke-width: 2; stroke-dasharray: 8; stroke: #000000" x1="188.472" y1="230.954" x2="1033.64" y2="230.495"/>
    <polygon style="fill: #000000" points="188.47,225.954 172.472,230.963 188.475,235.954 "/>
    <polygon style="fill: none; fill-opacity:0; stroke-width: 2; stroke: #000000" points="188.47,225.954 172.472,230.963 188.475,235.954 "/>
    <text font-size="12.7998" style="fill: #000000;text-anchor:middle;font-family:sans-serif;font-style:normal;font-weight:normal" x="601.512" y="245.139">OK / NOK</text>
  </g>
  <g>
    <line style="fill: none; fill-opacity:0; stroke-width: 2; stroke: #000000" x1="364.226" y1="815.745" x2="171.472" y2="815.963"/>
    <polygon style="fill: #000000" points="364.232,820.745 380.226,815.727 364.22,810.745 "/>
    <polygon style="fill: none; fill-opacity:0; stroke-width: 2; stroke: #000000" points="364.232,820.745 380.226,815.727 364.22,810.745 "/>
    <text font-size="12.7998" style="fill: #000000;text-anchor:middle;font-family:sans-serif;font-style:normal;font-weight:normal" x="274.182" y="830.456">Add (subgroup)</text>
  </g>
  <g>
    <line style="fill: none; fill-opacity:0; stroke-width: 2; stroke: #000000" x1="364.226" y1="995.745" x2="171.472" y2="995.963"/>
    <polygon style="fill: #000000" points="364.232,1000.74 380.226,995.727 364.22,990.745 "/>
    <polygon style="fill: none; fill-opacity:0; stroke-width: 2; stroke: #000000" points="364.232,1000.74 380.226,995.727 364.22,990.745 "/>
    <text font-size="12.7998" style="fill: #000000;text-anchor:middle;font-family:sans-serif;font-style:normal;font-weight:normal" x="272.001" y="1010.93">Add (document)</text>
  </g>
  <g>
    <line style="fill: none; fill-opacity:0; stroke-width: 2; stroke: #000000" x1="1016.64" y1="320.504" x2="171.472" y2="320.963"/>
    <polygon style="fill: #000000" points="1016.64,325.504 1032.64,320.496 1016.64,315.504 "/>
    <polygon style="fill: none; fill-opacity:0; stroke-width: 2; stroke: #000000" points="1016.64,325.504 1032.64,320.496 1016.64,315.504 "/>
    <text font-size="12.7998" style="fill: #000000;text-anchor:middle;font-family:sans-serif;font-style:normal;font-weight:normal" x="602.642" y="334.855">Add (training)</text>
  </g>
  <g>
    <line style="fill: none; fill-opacity:0; stroke-width: 2; stroke-dasharray: 8; stroke: #000000" x1="-53.1892" y1="245.575" x2="157.472" y2="245.963"/>
    <polygon style="fill: #000000" points="-53.18,240.575 -69.1892,245.546 -53.1985,250.575 "/>
    <polygon style="fill: none; fill-opacity:0; stroke-width: 2; stroke: #000000" points="-53.18,240.575 -69.1892,245.546 -53.1985,250.575 "/>
    <text font-size="12.7998" style="fill: #000000;text-anchor:middle;font-family:sans-serif;font-style:normal;font-weight:normal" x="42.9945" y="262.566">Unavailable date</text>
  </g>
</svg>
