<?xml version="1.0" encoding="UTF-8" standalone="no"?>
<!DOCTYPE svg PUBLIC "-//W3C//DTD SVG 1.0//EN" "http://www.w3.org/TR/2001/PR-SVG-20010719/DTD/svg10.dtd">
<svg width="23cm" height="17cm" viewBox="115 51 441 325" xmlns="http://www.w3.org/2000/svg" xmlns:xlink="http://www.w3.org/1999/xlink">
  <g>
    <ellipse style="fill: #ffffff" cx="141" cy="70" rx="6" ry="6"/>
    <ellipse style="fill: none; fill-opacity:0; stroke-width: 2; stroke: #000000" cx="141" cy="70" rx="6" ry="6"/>
    <line style="fill: none; fill-opacity:0; stroke-width: 2; stroke: #000000" x1="117" y1="82" x2="165" y2="82"/>
    <line style="fill: none; fill-opacity:0; stroke-width: 2; stroke: #000000" x1="141" y1="76" x2="141" y2="106"/>
    <line style="fill: none; fill-opacity:0; stroke-width: 2; stroke: #000000" x1="141" y1="106" x2="117" y2="132"/>
    <line style="fill: none; fill-opacity:0; stroke-width: 2; stroke: #000000" x1="141" y1="106" x2="165" y2="132"/>
    <text font-size="12.7998" style="fill: #000000;text-anchor:middle;font-family:sans-serif;font-style:normal;font-weight:normal" x="141" y="155.9">
      <tspan x="141" y="155.9">User</tspan>
    </text>
  </g>
  <g>
    <rect style="fill: #ffffff" x="378" y="98" width="49.15" height="36"/>
    <rect style="fill: none; fill-opacity:0; stroke-width: 2; stroke: #000000" x="378" y="98" width="49.15" height="36"/>
    <text font-size="12.7998" style="fill: #000000;text-anchor:middle;font-family:sans-serif;font-style:normal;font-weight:normal" x="402.575" y="119.9">
      <tspan x="402.575" y="119.9">User</tspan>
    </text>
    <line style="fill: none; fill-opacity:0; stroke-width: 1; stroke: #000000" x1="388" y1="122.9" x2="417.15" y2="122.9"/>
  </g>
  <g>
    <line style="fill: none; fill-opacity:0; stroke-width: 1; stroke-dasharray: 8; stroke: #000000" x1="402.575" y1="134" x2="402.575" y2="180"/>
    <line style="fill: none; fill-opacity:0; stroke-width: 1; stroke-dasharray: 8; stroke: #000000" x1="402.575" y1="360" x2="402.575" y2="375"/>
    <rect style="fill: #ffffff" x="395.575" y="180" width="14" height="180"/>
    <rect style="fill: none; fill-opacity:0; stroke-width: 2; stroke: #000000" x="395.575" y="180" width="14" height="180"/>
  </g>
  <g>
    <line style="fill: none; fill-opacity:0; stroke-width: 1; stroke-dasharray: 8; stroke: #000000" x1="141" y1="160" x2="141" y2="180"/>
    <line style="fill: none; fill-opacity:0; stroke-width: 1; stroke-dasharray: 8; stroke: #000000" x1="141" y1="360" x2="141" y2="375"/>
    <rect style="fill: #ffffff" x="134" y="180" width="14" height="180"/>
    <rect style="fill: none; fill-opacity:0; stroke-width: 2; stroke: #000000" x="134" y="180" width="14" height="180"/>
  </g>
  <g>
    <line style="fill: none; fill-opacity:0; stroke-width: 2; stroke: #000000" x1="378.575" y1="180" x2="148" y2="180"/>
    <polygon style="fill: #000000" points="378.575,185 394.575,180 378.575,175 "/>
    <polygon style="fill: none; fill-opacity:0; stroke-width: 2; stroke: #000000" points="378.575,185 394.575,180 378.575,175 "/>
    <text font-size="12.7998" style="fill: #000000;text-anchor:middle;font-family:sans-serif;font-style:normal;font-weight:normal" x="271.788" y="190">Enter (username)</text>
  </g>
  <g>
    <polyline style="fill: none; fill-opacity:0; stroke-width: 2; stroke: #000000" points="409.575,180 430.575,180 430.575,210 419.311,210 "/>
    <polygon style="fill: #000000" points="411.811,210 421.811,205 419.311,210 421.811,215 "/>
    <polygon style="fill: none; fill-opacity:0; stroke-width: 2; stroke: #000000" points="411.811,210 421.811,205 419.311,210 421.811,215 "/>
  </g>
  <text font-size="12.7998" style="fill: #000000;text-anchor:start;font-family:sans-serif;font-style:normal;font-weight:normal" x="438" y="194">
    <tspan x="438" y="194">Found (username)</tspan>
  </text>
  <g>
    <line style="fill: none; fill-opacity:0; stroke-width: 2; stroke: #000000" x1="378.575" y1="225" x2="148" y2="225"/>
    <polygon style="fill: #000000" points="378.575,230 394.575,225 378.575,220 "/>
    <polygon style="fill: none; fill-opacity:0; stroke-width: 2; stroke: #000000" points="378.575,230 394.575,225 378.575,220 "/>
    <text font-size="12.7998" style="fill: #000000;text-anchor:middle;font-family:sans-serif;font-style:normal;font-weight:normal" x="271.788" y="235">Enter (password)</text>
  </g>
  <g>
    <polyline style="fill: none; fill-opacity:0; stroke-width: 2; stroke: #000000" points="409.575,225 430.575,225 430.575,255 419.311,255 "/>
    <polygon style="fill: #000000" points="411.811,255 421.811,250 419.311,255 421.811,260 "/>
    <polygon style="fill: none; fill-opacity:0; stroke-width: 2; stroke: #000000" points="411.811,255 421.811,250 419.311,255 421.811,260 "/>
  </g>
  <text font-size="12.7998" style="fill: #000000;text-anchor:start;font-family:sans-serif;font-style:normal;font-weight:normal" x="438" y="238">
    <tspan x="438" y="238">Check (password)</tspan>
  </text>
  <g>
    <line style="fill: none; fill-opacity:0; stroke-width: 2; stroke-dasharray: 8; stroke: #000000" x1="165" y1="315" x2="395.575" y2="315"/>
    <polygon style="fill: #000000" points="165,310 149,315 165,320 "/>
    <polygon style="fill: none; fill-opacity:0; stroke-width: 2; stroke: #000000" points="165,310 149,315 165,320 "/>
    <text font-size="12.7998" style="fill: #000000;text-anchor:middle;font-family:sans-serif;font-style:normal;font-weight:normal" x="271.788" y="325">Connected</text>
  </g>
  <g>
    <polyline style="fill: none; fill-opacity:0; stroke-width: 2; stroke: #000000" points="409.575,270 430.575,270 430.575,300 419.311,300 "/>
    <polygon style="fill: #000000" points="411.811,300 421.811,295 419.311,300 421.811,305 "/>
    <polygon style="fill: none; fill-opacity:0; stroke-width: 2; stroke: #000000" points="411.811,300 421.811,295 419.311,300 421.811,305 "/>
  </g>
  <text font-size="12.7998" style="fill: #000000;text-anchor:start;font-family:sans-serif;font-style:normal;font-weight:normal" x="445" y="280">
    <tspan x="445" y="280">Set (online)</tspan>
  </text>
</svg>
