<?xml version="1.0" encoding="UTF-8" standalone="no"?>
<!DOCTYPE svg PUBLIC "-//W3C//DTD SVG 1.0//EN" "http://www.w3.org/TR/2001/PR-SVG-20010719/DTD/svg10.dtd">
<svg width="29cm" height="29cm" viewBox="-17 51 579 566" xmlns="http://www.w3.org/2000/svg" xmlns:xlink="http://www.w3.org/1999/xlink">
  <g>
    <rect style="fill: #ffffff" x="-15.4482" y="452.916" width="576.879" height="65.9757"/>
    <rect style="fill: none; fill-opacity:0; stroke-width: 2; stroke: #000000" x="-15.4482" y="452.916" width="576.879" height="65.9757"/>
    <rect style="fill: #ffffff" x="-15.4482" y="416.916" width="134.9" height="36"/>
    <rect style="fill: none; fill-opacity:0; stroke-width: 2; stroke: #000000" x="-15.4482" y="416.916" width="134.9" height="36"/>
    <text font-size="12.7998" style="fill: #000000;text-anchor:start;font-family:monospace;font-style:normal;font-weight:normal" x="-13.4482" y="431.916">&lt;&lt;alt [invalid]&gt;&gt;</text>
    <text font-size="12.7998" style="fill: #000000;text-anchor:start;font-family:monospace;font-style:normal;font-weight:normal" x="-13.4482" y="447.916"/>
  </g>
  <g>
    <rect style="fill: #ffffff" x="-15.4482" y="300.245" width="574.698" height="66.521"/>
    <rect style="fill: none; fill-opacity:0; stroke-width: 2; stroke: #000000" x="-15.4482" y="300.245" width="574.698" height="66.521"/>
    <rect style="fill: #ffffff" x="-15.4482" y="264.245" width="134.9" height="36"/>
    <rect style="fill: none; fill-opacity:0; stroke-width: 2; stroke: #000000" x="-15.4482" y="264.245" width="134.9" height="36"/>
    <text font-size="12.7998" style="fill: #000000;text-anchor:start;font-family:monospace;font-style:normal;font-weight:normal" x="-13.4482" y="279.245">&lt;&lt;alt [invalid]&gt;&gt;</text>
    <text font-size="12.7998" style="fill: #000000;text-anchor:start;font-family:monospace;font-style:normal;font-weight:normal" x="-13.4482" y="295.245"/>
  </g>
  <g>
    <ellipse style="fill: #ffffff" cx="141" cy="70" rx="6" ry="6"/>
    <ellipse style="fill: none; fill-opacity:0; stroke-width: 2; stroke: #000000" cx="141" cy="70" rx="6" ry="6"/>
    <line style="fill: none; fill-opacity:0; stroke-width: 2; stroke: #000000" x1="117" y1="82" x2="165" y2="82"/>
    <line style="fill: none; fill-opacity:0; stroke-width: 2; stroke: #000000" x1="141" y1="76" x2="141" y2="106"/>
    <line style="fill: none; fill-opacity:0; stroke-width: 2; stroke: #000000" x1="141" y1="106" x2="117" y2="132"/>
    <line style="fill: none; fill-opacity:0; stroke-width: 2; stroke: #000000" x1="141" y1="106" x2="165" y2="132"/>
    <text font-size="12.8" style="fill: #000000;text-anchor:middle;font-family:sans-serif;font-style:normal;font-weight:normal" x="141" y="155.9">
      <tspan x="141" y="155.9">User</tspan>
    </text>
  </g>
  <g>
    <line style="fill: none; fill-opacity:0; stroke-width: 1; stroke-dasharray: 8; stroke: #000000" x1="141" y1="160" x2="141" y2="181"/>
    <line style="fill: none; fill-opacity:0; stroke-width: 1; stroke-dasharray: 8; stroke: #000000" x1="141" y1="601" x2="141" y2="616"/>
    <rect style="fill: #ffffff" x="134" y="181" width="14" height="420"/>
    <rect style="fill: none; fill-opacity:0; stroke-width: 2; stroke: #000000" x="134" y="181" width="14" height="420"/>
  </g>
  <g>
    <rect style="fill: #ffffff" x="300" y="101" width="82.95" height="36"/>
    <rect style="fill: none; fill-opacity:0; stroke-width: 2; stroke: #000000" x="300" y="101" width="82.95" height="36"/>
    <text font-size="12.7998" style="fill: #000000;text-anchor:middle;font-family:sans-serif;font-style:normal;font-weight:normal" x="341.475" y="122.9">
      <tspan x="341.475" y="122.9">Controller</tspan>
    </text>
    <line style="fill: none; fill-opacity:0; stroke-width: 1; stroke: #000000" x1="310" y1="125.9" x2="372.95" y2="125.9"/>
  </g>
  <g>
    <rect style="fill: #ffffff" x="501" y="101" width="49.15" height="36"/>
    <rect style="fill: none; fill-opacity:0; stroke-width: 2; stroke: #000000" x="501" y="101" width="49.15" height="36"/>
    <text font-size="12.7998" style="fill: #000000;text-anchor:middle;font-family:sans-serif;font-style:normal;font-weight:normal" x="525.575" y="122.9">
      <tspan x="525.575" y="122.9">User</tspan>
    </text>
    <line style="fill: none; fill-opacity:0; stroke-width: 1; stroke: #000000" x1="511" y1="125.9" x2="540.15" y2="125.9"/>
  </g>
  <g>
    <line style="fill: none; fill-opacity:0; stroke-width: 1; stroke-dasharray: 8; stroke: #000000" x1="341.475" y1="137" x2="341.475" y2="181"/>
    <line style="fill: none; fill-opacity:0; stroke-width: 1; stroke-dasharray: 8; stroke: #000000" x1="341.475" y1="601" x2="341.475" y2="616"/>
    <rect style="fill: #ffffff" x="334.475" y="181" width="14" height="420"/>
    <rect style="fill: none; fill-opacity:0; stroke-width: 2; stroke: #000000" x="334.475" y="181" width="14" height="420"/>
  </g>
  <g>
    <line style="fill: none; fill-opacity:0; stroke-width: 2; stroke: #000000" x1="317.475" y1="196" x2="148" y2="196"/>
    <polygon style="fill: #000000" points="317.475,201 333.475,196 317.475,191 "/>
    <polygon style="fill: none; fill-opacity:0; stroke-width: 2; stroke: #000000" points="317.475,201 333.475,196 317.475,191 "/>
    <text font-size="12.7998" style="fill: #000000;text-anchor:middle;font-family:sans-serif;font-style:normal;font-weight:normal" x="238" y="209">Enter (username)</text>
  </g>
  <g>
    <line style="fill: none; fill-opacity:0; stroke-width: 2; stroke: #000000" x1="317.475" y1="226" x2="148" y2="226"/>
    <polygon style="fill: #000000" points="317.475,231 333.475,226 317.475,221 "/>
    <polygon style="fill: none; fill-opacity:0; stroke-width: 2; stroke: #000000" points="317.475,231 333.475,226 317.475,221 "/>
    <text font-size="12.7998" style="fill: #000000;text-anchor:middle;font-family:sans-serif;font-style:normal;font-weight:normal" x="236" y="240">Enter (password)</text>
  </g>
  <g>
    <line style="fill: none; fill-opacity:0; stroke-width: 1; stroke-dasharray: 8; stroke: #000000" x1="525.575" y1="137" x2="525.575" y2="241.358"/>
    <line style="fill: none; fill-opacity:0; stroke-width: 1; stroke-dasharray: 8; stroke: #000000" x1="525.575" y1="601.358" x2="525.575" y2="616.358"/>
    <rect style="fill: #ffffff" x="518.575" y="241.358" width="14" height="360"/>
    <rect style="fill: none; fill-opacity:0; stroke-width: 2; stroke: #000000" x="518.575" y="241.358" width="14" height="360"/>
  </g>
  <g>
    <line style="fill: none; fill-opacity:0; stroke-width: 2; stroke: #000000" x1="501.575" y1="241.322" x2="348.475" y2="241"/>
    <polygon style="fill: #000000" points="501.565,246.322 517.575,241.356 501.586,236.322 "/>
    <polygon style="fill: none; fill-opacity:0; stroke-width: 2; stroke: #000000" points="501.565,246.322 517.575,241.356 501.586,236.322 "/>
    <text font-size="12.7998" style="fill: #000000;text-anchor:middle;font-family:sans-serif;font-style:normal;font-weight:normal" x="432.751" y="255.534">Found (username)</text>
  </g>
  <g>
    <line style="fill: none; fill-opacity:0; stroke-width: 2; stroke-dasharray: 8; stroke: #000000" x1="365.475" y1="271.036" x2="518.575" y2="271.358"/>
    <polygon style="fill: #000000" points="365.485,266.036 349.475,271.002 365.464,276.036 "/>
    <polygon style="fill: none; fill-opacity:0; stroke-width: 2; stroke: #000000" points="365.485,266.036 349.475,271.002 365.464,276.036 "/>
    <text font-size="12.7998" style="fill: #000000;text-anchor:middle;font-family:sans-serif;font-style:normal;font-weight:normal" x="431.66" y="282.797">User / invalid</text>
  </g>
  <g>
    <line style="fill: none; fill-opacity:0; stroke-width: 2; stroke: #000000" x1="501.575" y1="391.322" x2="348.475" y2="391"/>
    <polygon style="fill: #000000" points="501.565,396.322 517.575,391.356 501.586,386.322 "/>
    <polygon style="fill: none; fill-opacity:0; stroke-width: 2; stroke: #000000" points="501.565,396.322 517.575,391.356 501.586,386.322 "/>
    <text font-size="12.7998" style="fill: #000000;text-anchor:middle;font-family:sans-serif;font-style:normal;font-weight:normal" x="429.479" y="406.57">Check (password)</text>
  </g>
  <g>
    <line style="fill: none; fill-opacity:0; stroke-width: 2; stroke-dasharray: 8; stroke: #000000" x1="365.475" y1="421.036" x2="518.575" y2="421.358"/>
    <polygon style="fill: #000000" points="365.485,416.036 349.475,421.002 365.464,426.036 "/>
    <polygon style="fill: none; fill-opacity:0; stroke-width: 2; stroke: #000000" points="365.485,416.036 349.475,421.002 365.464,426.036 "/>
    <text font-size="12.7998" style="fill: #000000;text-anchor:middle;font-family:sans-serif;font-style:normal;font-weight:normal" x="431.66" y="436.013">valid / invalid</text>
  </g>
  <g>
    <line style="fill: none; fill-opacity:0; stroke-width: 2; stroke-dasharray: 8; stroke: #000000" x1="165" y1="331" x2="334.475" y2="331"/>
    <polygon style="fill: #000000" points="165,326 149,331 165,336 "/>
    <polygon style="fill: none; fill-opacity:0; stroke-width: 2; stroke: #000000" points="165,326 149,331 165,336 "/>
    <text font-size="12.7998" style="fill: #000000;text-anchor:middle;font-family:sans-serif;font-style:normal;font-weight:normal" x="240.821" y="345.223">Invaild username</text>
  </g>
  <g>
    <line style="fill: none; fill-opacity:0; stroke-width: 2; stroke: #000000" x1="501.575" y1="556.322" x2="348.475" y2="556"/>
    <polygon style="fill: #000000" points="501.565,561.322 517.575,556.356 501.586,551.322 "/>
    <polygon style="fill: none; fill-opacity:0; stroke-width: 2; stroke: #000000" points="501.565,561.322 517.575,556.356 501.586,551.322 "/>
    <text font-size="12.7998" style="fill: #000000;text-anchor:middle;font-family:sans-serif;font-style:normal;font-weight:normal" x="433.841" y="570.49">Set (online)</text>
  </g>
  <g>
    <line style="fill: none; fill-opacity:0; stroke-width: 2; stroke-dasharray: 8; stroke: #000000" x1="165" y1="481" x2="334.475" y2="481"/>
    <polygon style="fill: #000000" points="165,476 149,481 165,486 "/>
    <polygon style="fill: none; fill-opacity:0; stroke-width: 2; stroke: #000000" points="165,476 149,481 165,486 "/>
    <text font-size="12.7998" style="fill: #000000;text-anchor:middle;font-family:sans-serif;font-style:normal;font-weight:normal" x="241.912" y="495.223">Invalid password</text>
  </g>
  <g>
    <line style="fill: none; fill-opacity:0; stroke-width: 2; stroke-dasharray: 8; stroke: #000000" x1="165" y1="571" x2="334.475" y2="571"/>
    <polygon style="fill: #000000" points="165,566 149,571 165,576 "/>
    <polygon style="fill: none; fill-opacity:0; stroke-width: 2; stroke: #000000" points="165,566 149,571 165,576 "/>
    <text font-size="12.7998" style="fill: #000000;text-anchor:middle;font-family:sans-serif;font-style:normal;font-weight:normal" x="241.912" y="585.413">Connected</text>
  </g>
</svg>
