<?xml version="1.0" encoding="UTF-8" standalone="no"?>
<!DOCTYPE svg PUBLIC "-//W3C//DTD SVG 1.0//EN" "http://www.w3.org/TR/2001/PR-SVG-20010719/DTD/svg10.dtd">
<svg width="47cm" height="54cm" viewBox="29 70 932 1078" xmlns="http://www.w3.org/2000/svg" xmlns:xlink="http://www.w3.org/1999/xlink">
  <g>
    <rect style="fill: #ffffff" x="30.65" y="902" width="929" height="163"/>
    <rect style="fill: none; fill-opacity:0; stroke-width: 2; stroke: #000000" x="30.65" y="902" width="929" height="163"/>
    <rect style="fill: #ffffff" x="30.65" y="866" width="65.6" height="36"/>
    <rect style="fill: none; fill-opacity:0; stroke-width: 2; stroke: #000000" x="30.65" y="866" width="65.6" height="36"/>
    <text font-size="12.7998" style="fill: #000000;text-anchor:start;font-family:monospace;font-style:normal;font-weight:normal" x="32.65" y="881">&lt;&lt;loop&gt;&gt;</text>
    <text font-size="12.7998" style="fill: #000000;text-anchor:start;font-family:monospace;font-style:normal;font-weight:normal" x="32.65" y="897"/>
  </g>
  <g>
    <rect style="fill: #ffffff" x="30.65" y="472.5" width="930" height="372.5"/>
    <rect style="fill: none; fill-opacity:0; stroke-width: 2; stroke: #000000" x="30.65" y="472.5" width="930" height="372.5"/>
    <rect style="fill: #ffffff" x="30.65" y="436.5" width="65.6" height="36"/>
    <rect style="fill: none; fill-opacity:0; stroke-width: 2; stroke: #000000" x="30.65" y="436.5" width="65.6" height="36"/>
    <text font-size="12.7998" style="fill: #000000;text-anchor:start;font-family:monospace;font-style:normal;font-weight:normal" x="32.65" y="451.5">&lt;&lt;loop&gt;&gt;</text>
    <text font-size="12.7998" style="fill: #000000;text-anchor:start;font-family:monospace;font-style:normal;font-weight:normal" x="32.65" y="467.5"/>
  </g>
  <g>
    <rect style="fill: #ffffff" x="51.65" y="594" width="887" height="214"/>
    <rect style="fill: none; fill-opacity:0; stroke-width: 2; stroke: #000000" x="51.65" y="594" width="887" height="214"/>
    <rect style="fill: #ffffff" x="51.65" y="558" width="65.6" height="36"/>
    <rect style="fill: none; fill-opacity:0; stroke-width: 2; stroke: #000000" x="51.65" y="558" width="65.6" height="36"/>
    <text font-size="12.7998" style="fill: #000000;text-anchor:start;font-family:monospace;font-style:normal;font-weight:normal" x="53.65" y="573">&lt;&lt;loop&gt;&gt;</text>
    <text font-size="12.7998" style="fill: #000000;text-anchor:start;font-family:monospace;font-style:normal;font-weight:normal" x="53.65" y="589"/>
  </g>
  <g>
    <rect style="fill: #ffffff" x="31.65" y="268.5" width="928" height="153"/>
    <rect style="fill: none; fill-opacity:0; stroke-width: 2; stroke: #000000" x="31.65" y="268.5" width="928" height="153"/>
    <rect style="fill: #ffffff" x="31.65" y="232.5" width="65.6" height="36"/>
    <rect style="fill: none; fill-opacity:0; stroke-width: 2; stroke: #000000" x="31.65" y="232.5" width="65.6" height="36"/>
    <text font-size="12.7998" style="fill: #000000;text-anchor:start;font-family:monospace;font-style:normal;font-weight:normal" x="33.65" y="247.5">&lt;&lt;loop&gt;&gt;</text>
    <text font-size="12.7998" style="fill: #000000;text-anchor:start;font-family:monospace;font-style:normal;font-weight:normal" x="33.65" y="263.5"/>
  </g>
  <g>
    <ellipse style="fill: #ffffff" cx="131" cy="89" rx="6" ry="6"/>
    <ellipse style="fill: none; fill-opacity:0; stroke-width: 2; stroke: #000000" cx="131" cy="89" rx="6" ry="6"/>
    <line style="fill: none; fill-opacity:0; stroke-width: 2; stroke: #000000" x1="107" y1="101" x2="155" y2="101"/>
    <line style="fill: none; fill-opacity:0; stroke-width: 2; stroke: #000000" x1="131" y1="95" x2="131" y2="125"/>
    <line style="fill: none; fill-opacity:0; stroke-width: 2; stroke: #000000" x1="131" y1="125" x2="107" y2="151"/>
    <line style="fill: none; fill-opacity:0; stroke-width: 2; stroke: #000000" x1="131" y1="125" x2="155" y2="151"/>
    <text font-size="12.8" style="fill: #000000;text-anchor:middle;font-family:sans-serif;font-style:normal;font-weight:normal" x="131" y="174.9">
      <tspan x="131" y="174.9">Trainer</tspan>
    </text>
  </g>
  <g>
    <line style="fill: none; fill-opacity:0; stroke-width: 1; stroke-dasharray: 8; stroke: #000000" x1="131" y1="179" x2="131" y2="202"/>
    <line style="fill: none; fill-opacity:0; stroke-width: 1; stroke-dasharray: 8; stroke: #000000" x1="131" y1="1132" x2="131" y2="1147"/>
    <rect style="fill: #ffffff" x="124" y="202" width="14" height="930"/>
    <rect style="fill: none; fill-opacity:0; stroke-width: 2; stroke: #000000" x="124" y="202" width="14" height="930"/>
  </g>
  <g>
    <rect style="fill: #ffffff" x="353" y="100" width="70.45" height="36"/>
    <rect style="fill: none; fill-opacity:0; stroke-width: 2; stroke: #000000" x="353" y="100" width="70.45" height="36"/>
    <text font-size="12.8" style="fill: #000000;text-anchor:middle;font-family:sans-serif;font-style:normal;font-weight:normal" x="388.225" y="121.9">
      <tspan x="388.225" y="121.9">Training</tspan>
    </text>
    <line style="fill: none; fill-opacity:0; stroke-width: 1; stroke: #000000" x1="363" y1="124.9" x2="413.45" y2="124.9"/>
  </g>
  <g>
    <line style="fill: none; fill-opacity:0; stroke-width: 1; stroke-dasharray: 8; stroke: #000000" x1="388.226" y1="136" x2="388.226" y2="201"/>
    <line style="fill: none; fill-opacity:0; stroke-width: 1; stroke-dasharray: 8; stroke: #000000" x1="388.226" y1="1131" x2="388.226" y2="1146"/>
    <rect style="fill: #ffffff" x="381.226" y="201" width="14" height="930"/>
    <rect style="fill: none; fill-opacity:0; stroke-width: 2; stroke: #000000" x="381.226" y="201" width="14" height="930"/>
  </g>
  <g>
    <line style="fill: none; fill-opacity:0; stroke-width: 2; stroke: #000000" x1="364.226" y1="201.07" x2="138" y2="202"/>
    <polygon style="fill: #000000" points="364.247,206.07 380.226,201.004 364.206,196.07 "/>
    <polygon style="fill: none; fill-opacity:0; stroke-width: 2; stroke: #000000" points="364.247,206.07 380.226,201.004 364.206,196.07 "/>
    <text font-size="12.7998" style="fill: #000000;text-anchor:middle;font-family:sans-serif;font-style:normal;font-weight:normal" x="259.25" y="216.5">Create (wording, accesscode, type)</text>
  </g>
  <g>
    <line style="fill: none; fill-opacity:0; stroke-width: 2; stroke-dasharray: 8; stroke: #000000" x1="155" y1="231.93" x2="381.226" y2="231"/>
    <polygon style="fill: #000000" points="154.979,226.93 139,231.996 155.02,236.93 "/>
    <polygon style="fill: none; fill-opacity:0; stroke-width: 2; stroke: #000000" points="154.979,226.93 139,231.996 155.02,236.93 "/>
    <text font-size="12.7998" style="fill: #000000;text-anchor:middle;font-family:sans-serif;font-style:normal;font-weight:normal" x="260.25" y="245.5">Creation message</text>
  </g>
  <g>
    <rect style="fill: #ffffff" x="555.25" y="100.5" width="49.15" height="36"/>
    <rect style="fill: none; fill-opacity:0; stroke-width: 2; stroke: #000000" x="555.25" y="100.5" width="49.15" height="36"/>
    <text font-size="12.8" style="fill: #000000;text-anchor:middle;font-family:sans-serif;font-style:normal;font-weight:normal" x="579.825" y="122.4">
      <tspan x="579.825" y="122.4">User</tspan>
    </text>
    <line style="fill: none; fill-opacity:0; stroke-width: 1; stroke: #000000" x1="565.25" y1="125.4" x2="594.4" y2="125.4"/>
  </g>
  <g>
    <line style="fill: none; fill-opacity:0; stroke-width: 1; stroke-dasharray: 8; stroke: #000000" x1="579.826" y1="136.5" x2="579.826" y2="306.5"/>
    <line style="fill: none; fill-opacity:0; stroke-width: 1; stroke-dasharray: 8; stroke: #000000" x1="579.826" y1="366.5" x2="579.826" y2="429"/>
    <rect style="fill: #ffffff" x="572.826" y="306.5" width="14" height="60"/>
    <rect style="fill: none; fill-opacity:0; stroke-width: 2; stroke: #000000" x="572.826" y="306.5" width="14" height="60"/>
  </g>
  <g>
    <line style="fill: none; fill-opacity:0; stroke-width: 2; stroke: #000000" x1="364.226" y1="291.07" x2="138" y2="292"/>
    <polygon style="fill: #000000" points="364.247,296.07 380.226,291.004 364.206,286.07 "/>
    <polygon style="fill: none; fill-opacity:0; stroke-width: 2; stroke: #000000" points="364.247,296.07 380.226,291.004 364.206,286.07 "/>
    <text font-size="12.7998" style="fill: #000000;text-anchor:middle;font-family:sans-serif;font-style:normal;font-weight:normal" x="259.25" y="306.5">Enter (username)</text>
  </g>
  <g>
    <line style="fill: none; fill-opacity:0; stroke-width: 2; stroke: #000000" x1="555.826" y1="306.452" x2="395.226" y2="306"/>
    <polygon style="fill: #000000" points="555.812,311.452 571.826,306.497 555.84,301.452 "/>
    <polygon style="fill: none; fill-opacity:0; stroke-width: 2; stroke: #000000" points="555.812,311.452 571.826,306.497 555.84,301.452 "/>
    <text font-size="12.7998" style="fill: #000000;text-anchor:middle;font-family:sans-serif;font-style:normal;font-weight:normal" x="483.25" y="320.5">Found (username)</text>
  </g>
  <g>
    <line style="fill: none; fill-opacity:0; stroke-width: 2; stroke-dasharray: 8; stroke: #000000" x1="412.226" y1="336.048" x2="572.826" y2="336.5"/>
    <polygon style="fill: #000000" points="412.24,331.048 396.226,336.003 412.212,341.048 "/>
    <polygon style="fill: none; fill-opacity:0; stroke-width: 2; stroke: #000000" points="412.24,331.048 396.226,336.003 412.212,341.048 "/>
    <text font-size="12.7998" style="fill: #000000;text-anchor:middle;font-family:sans-serif;font-style:normal;font-weight:normal" x="484.75" y="349.5">User</text>
  </g>
  <g>
    <line style="fill: none; fill-opacity:0; stroke-width: 2; stroke-dasharray: 8; stroke: #000000" x1="155" y1="396.93" x2="381.226" y2="396"/>
    <polygon style="fill: #000000" points="154.979,391.93 139,396.996 155.02,401.93 "/>
    <polygon style="fill: none; fill-opacity:0; stroke-width: 2; stroke: #000000" points="154.979,391.93 139,396.996 155.02,401.93 "/>
    <text font-size="12.7998" style="fill: #000000;text-anchor:middle;font-family:sans-serif;font-style:normal;font-weight:normal" x="259.612" y="406.5">Addition message</text>
  </g>
  <g>
    <rect style="fill: #ffffff" x="699.65" y="101.5" width="58.95" height="36"/>
    <rect style="fill: none; fill-opacity:0; stroke-width: 2; stroke: #000000" x="699.65" y="101.5" width="58.95" height="36"/>
    <text font-size="12.8" style="fill: #000000;text-anchor:middle;font-family:sans-serif;font-style:normal;font-weight:normal" x="729.125" y="123.4">
      <tspan x="729.125" y="123.4">Group</tspan>
    </text>
    <line style="fill: none; fill-opacity:0; stroke-width: 1; stroke: #000000" x1="709.65" y1="126.4" x2="748.6" y2="126.4"/>
  </g>
  <g>
    <line style="fill: none; fill-opacity:0; stroke-width: 1; stroke-dasharray: 8; stroke: #000000" x1="729.126" y1="122.5" x2="729.126" y2="502"/>
    <line style="fill: none; fill-opacity:0; stroke-width: 1; stroke-dasharray: 8; stroke: #000000" x1="729.126" y1="772" x2="729.126" y2="1137.5"/>
    <rect style="fill: #ffffff" x="722.126" y="502" width="14" height="270"/>
    <rect style="fill: none; fill-opacity:0; stroke-width: 2; stroke: #000000" x="722.126" y="502" width="14" height="270"/>
  </g>
  <g>
    <line style="fill: none; fill-opacity:0; stroke-width: 2; stroke: #000000" x1="705.126" y1="501.948" x2="395.226" y2="501"/>
    <polygon style="fill: #000000" points="705.111,506.948 721.126,501.997 705.141,496.948 "/>
    <polygon style="fill: none; fill-opacity:0; stroke-width: 2; stroke: #000000" points="705.111,506.948 721.126,501.997 705.141,496.948 "/>
    <text font-size="12.7998" style="fill: #000000;text-anchor:middle;font-family:sans-serif;font-style:normal;font-weight:normal" x="555.65" y="515.5">Create (subgroup name)</text>
  </g>
  <g>
    <line style="fill: none; fill-opacity:0; stroke-width: 2; stroke: #000000" x1="364.226" y1="486.07" x2="138" y2="487"/>
    <polygon style="fill: #000000" points="364.247,491.07 380.226,486.004 364.206,481.07 "/>
    <polygon style="fill: none; fill-opacity:0; stroke-width: 2; stroke: #000000" points="364.247,491.07 380.226,486.004 364.206,481.07 "/>
    <text font-size="12.7998" style="fill: #000000;text-anchor:middle;font-family:sans-serif;font-style:normal;font-weight:normal" x="258.65" y="501.5">Enter (subgroup name)</text>
  </g>
  <g>
    <line style="fill: none; fill-opacity:0; stroke-width: 2; stroke-dasharray: 8; stroke: #000000" x1="155" y1="546.93" x2="381.226" y2="546"/>
    <polygon style="fill: #000000" points="154.979,541.93 139,546.996 155.02,551.93 "/>
    <polygon style="fill: none; fill-opacity:0; stroke-width: 2; stroke: #000000" points="154.979,541.93 139,546.996 155.02,551.93 "/>
    <text font-size="12.7998" style="fill: #000000;text-anchor:middle;font-family:sans-serif;font-style:normal;font-weight:normal" x="259.65" y="558.5">Creation message</text>
  </g>
  <g>
    <line style="fill: none; fill-opacity:0; stroke-width: 2; stroke-dasharray: 8; stroke: #000000" x1="412.226" y1="531.052" x2="722.126" y2="532"/>
    <polygon style="fill: #000000" points="412.241,526.052 396.226,531.003 412.211,536.052 "/>
    <polygon style="fill: none; fill-opacity:0; stroke-width: 2; stroke: #000000" points="412.241,526.052 396.226,531.003 412.211,536.052 "/>
    <text font-size="12.7998" style="fill: #000000;text-anchor:middle;font-family:sans-serif;font-style:normal;font-weight:normal" x="559.65" y="544.5">Subgroup created</text>
  </g>
  <g>
    <line style="fill: none; fill-opacity:0; stroke-width: 2; stroke: #000000" x1="364.226" y1="621.07" x2="138" y2="622"/>
    <polygon style="fill: #000000" points="364.247,626.07 380.226,621.004 364.206,616.07 "/>
    <polygon style="fill: none; fill-opacity:0; stroke-width: 2; stroke: #000000" points="364.247,626.07 380.226,621.004 364.206,616.07 "/>
    <text font-size="12.7998" style="fill: #000000;text-anchor:middle;font-family:sans-serif;font-style:normal;font-weight:normal" x="260.65" y="636.5">Enter (username)</text>
  </g>
  <g>
    <line style="fill: none; fill-opacity:0; stroke-width: 2; stroke: #000000" x1="555.65" y1="635.548" x2="395.226" y2="636"/>
    <polygon style="fill: #000000" points="555.664,640.548 571.65,635.503 555.636,630.548 "/>
    <polygon style="fill: none; fill-opacity:0; stroke-width: 2; stroke: #000000" points="555.664,640.548 571.65,635.503 555.636,630.548 "/>
    <text font-size="12.7998" style="fill: #000000;text-anchor:middle;font-family:sans-serif;font-style:normal;font-weight:normal" x="482.65" y="649.5">Found (username)</text>
  </g>
  <g>
    <line style="fill: none; fill-opacity:0; stroke-width: 1; stroke-dasharray: 8; stroke: #000000" x1="579.65" y1="403.5" x2="579.65" y2="635.5"/>
    <line style="fill: none; fill-opacity:0; stroke-width: 1; stroke-dasharray: 8; stroke: #000000" x1="579.65" y1="695.5" x2="579.65" y2="1142.5"/>
    <rect style="fill: #ffffff" x="572.65" y="635.5" width="14" height="60"/>
    <rect style="fill: none; fill-opacity:0; stroke-width: 2; stroke: #000000" x="572.65" y="635.5" width="14" height="60"/>
  </g>
  <g>
    <line style="fill: none; fill-opacity:0; stroke-width: 2; stroke-dasharray: 8; stroke: #000000" x1="412.226" y1="665.952" x2="572.65" y2="665.5"/>
    <polygon style="fill: #000000" points="412.212,660.952 396.226,665.997 412.24,670.952 "/>
    <polygon style="fill: none; fill-opacity:0; stroke-width: 2; stroke: #000000" points="412.212,660.952 396.226,665.997 412.24,670.952 "/>
    <text font-size="12.7998" style="fill: #000000;text-anchor:middle;font-family:sans-serif;font-style:normal;font-weight:normal" x="483.65" y="678.5">User</text>
  </g>
  <g>
    <line style="fill: none; fill-opacity:0; stroke-width: 2; stroke: #000000" x1="705.126" y1="696.948" x2="395.226" y2="696"/>
    <polygon style="fill: #000000" points="705.111,701.948 721.126,696.997 705.141,691.948 "/>
    <polygon style="fill: none; fill-opacity:0; stroke-width: 2; stroke: #000000" points="705.111,701.948 721.126,696.997 705.141,691.948 "/>
    <text font-size="12.7998" style="fill: #000000;text-anchor:middle;font-family:sans-serif;font-style:normal;font-weight:normal" x="556.65" y="710.5">Add (member)</text>
  </g>
  <g>
    <line style="fill: none; fill-opacity:0; stroke-width: 2; stroke-dasharray: 8; stroke: #000000" x1="412.226" y1="726.052" x2="722.126" y2="727"/>
    <polygon style="fill: #000000" points="412.241,721.052 396.226,726.003 412.211,731.052 "/>
    <polygon style="fill: none; fill-opacity:0; stroke-width: 2; stroke: #000000" points="412.241,721.052 396.226,726.003 412.211,731.052 "/>
    <text font-size="12.7998" style="fill: #000000;text-anchor:middle;font-family:sans-serif;font-style:normal;font-weight:normal" x="559.65" y="739.5">Member adder</text>
  </g>
  <g>
    <line style="fill: none; fill-opacity:0; stroke-width: 2; stroke-dasharray: 8; stroke: #000000" x1="155" y1="786.93" x2="381.226" y2="786"/>
    <polygon style="fill: #000000" points="154.979,781.93 139,786.996 155.02,791.93 "/>
    <polygon style="fill: none; fill-opacity:0; stroke-width: 2; stroke: #000000" points="154.979,781.93 139,786.996 155.02,791.93 "/>
    <text font-size="12.7998" style="fill: #000000;text-anchor:middle;font-family:sans-serif;font-style:normal;font-weight:normal" x="258.65" y="799.5">Addition message</text>
  </g>
  <g>
    <polyline style="fill: none; fill-opacity:0; stroke-width: 2; stroke: #000000" points="395.226,351 416.226,351 416.226,381 404.962,381 "/>
    <polygon style="fill: #000000" points="397.462,381 407.462,376 404.962,381 407.462,386 "/>
    <polygon style="fill: none; fill-opacity:0; stroke-width: 2; stroke: #000000" points="397.462,381 407.462,376 404.962,381 407.462,386 "/>
  </g>
  <text font-size="12.8" style="fill: #000000;text-anchor:start;font-family:sans-serif;font-style:normal;font-weight:normal" x="422.65" y="368.5">
    <tspan x="422.65" y="368.5">Add (attendee)</tspan>
  </text>
  <g>
    <rect style="fill: #ffffff" x="858.4" y="101" width="64.9" height="36"/>
    <rect style="fill: none; fill-opacity:0; stroke-width: 2; stroke: #000000" x="858.4" y="101" width="64.9" height="36"/>
    <text font-size="12.8" style="fill: #000000;text-anchor:middle;font-family:sans-serif;font-style:normal;font-weight:normal" x="890.85" y="122.9">
      <tspan x="890.85" y="122.9">Upload</tspan>
    </text>
    <line style="fill: none; fill-opacity:0; stroke-width: 1; stroke: #000000" x1="868.4" y1="125.9" x2="913.3" y2="125.9"/>
  </g>
  <g>
    <line style="fill: none; fill-opacity:0; stroke-width: 1; stroke-dasharray: 8; stroke: #000000" x1="890.85" y1="137" x2="890.85" y2="936"/>
    <line style="fill: none; fill-opacity:0; stroke-width: 1; stroke-dasharray: 8; stroke: #000000" x1="890.85" y1="996" x2="890.85" y2="1133.5"/>
    <rect style="fill: #ffffff" x="883.85" y="936" width="14" height="60"/>
    <rect style="fill: none; fill-opacity:0; stroke-width: 2; stroke: #000000" x="883.85" y="936" width="14" height="60"/>
  </g>
  <g>
    <line style="fill: none; fill-opacity:0; stroke-width: 2; stroke: #000000" x1="364.226" y1="921.07" x2="138" y2="922"/>
    <polygon style="fill: #000000" points="364.247,926.07 380.226,921.004 364.206,916.07 "/>
    <polygon style="fill: none; fill-opacity:0; stroke-width: 2; stroke: #000000" points="364.247,926.07 380.226,921.004 364.206,916.07 "/>
    <text font-size="12.7998" style="fill: #000000;text-anchor:middle;font-family:sans-serif;font-style:normal;font-weight:normal" x="257.65" y="937">Upload (document)</text>
  </g>
  <g>
    <line style="fill: none; fill-opacity:0; stroke-width: 2; stroke: #000000" x1="866.85" y1="936" x2="395.226" y2="936"/>
    <polygon style="fill: #000000" points="866.85,941 882.85,936 866.85,931 "/>
    <polygon style="fill: none; fill-opacity:0; stroke-width: 2; stroke: #000000" points="866.85,941 882.85,936 866.85,931 "/>
    <text font-size="12.7998" style="fill: #000000;text-anchor:middle;font-family:sans-serif;font-style:normal;font-weight:normal" x="656.65" y="951.5">Create (document)</text>
  </g>
  <g>
    <line style="fill: none; fill-opacity:0; stroke-width: 2; stroke-dasharray: 8; stroke: #000000" x1="412.226" y1="966" x2="883.85" y2="966"/>
    <polygon style="fill: #000000" points="412.226,961 396.226,966 412.226,971 "/>
    <polygon style="fill: none; fill-opacity:0; stroke-width: 2; stroke: #000000" points="412.226,961 396.226,966 412.226,971 "/>
    <text font-size="12.7998" style="fill: #000000;text-anchor:middle;font-family:sans-serif;font-style:normal;font-weight:normal" x="643.65" y="981.5">Upload</text>
  </g>
  <g>
    <polyline style="fill: none; fill-opacity:0; stroke-width: 2; stroke: #000000" points="395.226,981 416.226,981 416.226,1011 404.962,1011 "/>
    <polygon style="fill: #000000" points="397.462,1011 407.462,1006 404.962,1011 407.462,1016 "/>
    <polygon style="fill: none; fill-opacity:0; stroke-width: 2; stroke: #000000" points="397.462,1011 407.462,1006 404.962,1011 407.462,1016 "/>
  </g>
  <text font-size="12.8" style="fill: #000000;text-anchor:start;font-family:sans-serif;font-style:normal;font-weight:normal" x="423.65" y="996">
    <tspan x="423.65" y="996">Add (document)</tspan>
  </text>
  <g>
    <line style="fill: none; fill-opacity:0; stroke-width: 2; stroke-dasharray: 8; stroke: #000000" x1="155" y1="1026.93" x2="381.226" y2="1026"/>
    <polygon style="fill: #000000" points="154.979,1021.93 139,1027 155.02,1031.93 "/>
    <polygon style="fill: none; fill-opacity:0; stroke-width: 2; stroke: #000000" points="154.979,1021.93 139,1027 155.02,1031.93 "/>
    <text font-size="12.7998" style="fill: #000000;text-anchor:middle;font-family:sans-serif;font-style:normal;font-weight:normal" x="259.65" y="1043">Addition message</text>
  </g>
  <g>
    <polyline style="fill: none; fill-opacity:0; stroke-width: 2; stroke: #000000" points="395.226,741 416.226,741 416.226,771 404.962,771 "/>
    <polygon style="fill: #000000" points="397.462,771 407.462,766 404.962,771 407.462,776 "/>
    <polygon style="fill: none; fill-opacity:0; stroke-width: 2; stroke: #000000" points="397.462,771 407.462,766 404.962,771 407.462,776 "/>
  </g>
  <text font-size="12.8" style="fill: #000000;text-anchor:start;font-family:sans-serif;font-style:normal;font-weight:normal" x="425.65" y="757">
    <tspan x="425.65" y="757">Add (subgroup)</tspan>
  </text>
</svg>
